<svg xmlns="http://www.w3.org/2000/svg" width="600" height="600" viewBox="0 0 600 600">
  <rect width="600" height="600" fill="#f3e6c8"/>
  <rect x="20" y="20" width="560" height="560" fill="none" stroke="#7a5c2e" stroke-width="3"/>
  <rect x="34" y="34" width="532" height="532" fill="none" stroke="#c9a24b" stroke-width="2"/>
  <g fill="none" stroke="#7a5c2e" stroke-width="3">
    <path d="M60 60 q40 0 40 40 M60 60 q0 40 40 40"/>
    <path d="M540 60 q-40 0 -40 40 M540 60 q0 40 -40 40"/>
    <path d="M60 540 q40 0 40 -40 M60 540 q0 -40 40 -40"/>
    <path d="M540 540 q-40 0 -40 -40 M540 540 q0 -40 -40 -40"/>
  </g>
  <text x="300" y="250" font-family="Georgia, serif" font-size="46" fill="#3a2a18" text-anchor="middle" font-style="italic">Carta</text>
  <text x="300" y="320" font-family="Georgia, serif" font-size="46" fill="#3a2a18" text-anchor="middle" font-style="italic">Victoriana</text>
  <text x="300" y="400" font-family="Georgia, serif" font-size="22" fill="#7a5c2e" text-anchor="middle">✦ Portada ✦</text>
  <text x="300" y="560" font-family="Georgia, serif" font-size="16" fill="#a98c55" text-anchor="middle">Reemplaza: images/portada.svg</text>
</svg>
